<?xml version="1.0" encoding="utf-8"?>
<!-- Generator: Adobe Illustrator 19.2.1, SVG Export Plug-In . SVG Version: 6.00 Build 0)  -->
<svg version="1.1" id="Layer_1" xmlns="http://www.w3.org/2000/svg" xmlns:xlink="http://www.w3.org/1999/xlink" x="0px" y="0px"
	 viewBox="0 0 300 208.9" style="enable-background:new 0 0 300 208.9;" xml:space="preserve">
<style type="text/css">
	.st0{fill:#3498DB;}
	.st1{fill:#FFFFFF;}
</style>
<g>
	<path class="st0" d="M230.9,66.5c-2.6,0-5.2,0.1-7.7,0.4C213.6,30.2,180.4,4,141.3,4C94.6,4.1,56.7,40.9,56.8,87.5
		c0,0.7,0,0.9,0,0.9h0C25.4,88.4,0,115.6,0,146.9c0,31.3,25.6,57.6,57,57.5l27.7,0.3l137.8,0l13.7,0.1c16,0,31.3-7.1,41.3-18.2
		c14.4-13.1,22.6-31.8,22.6-51.2C299.9,97.4,269,66.4,230.9,66.5z"/>
	<g>
		<path class="st1" d="M150,118.6V59.2c-32.8,0-59.4,26.7-59.4,59.4c0,32.1,25.6,58.3,57.5,59.4c0,0,0,0,0,0c0.7,0,1.3,0,2,0
			c0.8,0,1.6,0,2.4,0v0c31.7-1.3,57-27.4,57-59.4v0H150z M130.5,120c0,6.2,0.4,12.4,1.1,18.3c-7.4-1-14.2-2.5-19.9-4.5
			c-0.9-4.4-1.4-9.1-1.4-13.8H130.5z M110.2,117.2c0.1-4.8,0.6-9.4,1.4-13.8c5.7-2,12.5-3.5,19.9-4.5c-0.7,5.9-1.1,12.1-1.1,18.3
			H110.2z M131.9,141.3c0.7,5.6,1.8,11,3.1,15.7c-6.4-1.2-12.3-3.2-17.5-5.8c-2.1-4.3-3.8-9-5.1-14
			C118.1,139,124.7,140.4,131.9,141.3z M112.4,100.1c1.2-5,2.9-9.8,5.1-14c5.3-2.6,11.2-4.6,17.5-5.8c-1.3,4.8-2.3,10.1-3.1,15.7
			C124.7,96.9,118.1,98.3,112.4,100.1z M119.7,82c5.9-9.8,14-16.8,23.3-19.1c-2.8,3.2-5.2,8.2-7.1,14.4
			C130.1,78.3,124.7,79.9,119.7,82z M131.5,65.1C125,69.5,119.5,76,115.4,84c-8,4.1-14.6,9.6-18.9,16.1
			C102.2,83.8,115.1,70.8,131.5,65.1z M113.4,88.3c-1.7,4-3.1,8.3-4.1,12.9c-6.3,2.3-11.2,5.2-14.4,8.4
			C97.6,101.2,104.3,93.8,113.4,88.3z M108.6,104.5c-0.7,4.1-1.1,8.3-1.2,12.7H93.5C94.4,112.4,100,107.9,108.6,104.5z M107.4,120
			c0.1,4.4,0.5,8.6,1.2,12.7c-8.6-3.4-14.2-7.9-15.1-12.7H107.4z M109.3,136c1,4.6,2.4,8.9,4.1,12.9c-9.1-5.4-15.8-12.9-18.5-21.3
			C98.1,130.9,103,133.7,109.3,136z M96.5,137.2c4.4,6.4,10.9,11.9,18.9,16.1c4.1,8,9.6,14.6,16.1,18.9
			C115.1,166.5,102.2,153.5,96.5,137.2z M119.7,155.3c5,2.1,10.4,3.7,16.2,4.7c1.9,6.2,4.3,11.2,7.1,14.4
			C133.7,172,125.5,165.1,119.7,155.3z M148.6,175c-3.5-1.1-7-6.3-9.7-14.6c3.1,0.4,6.3,0.7,9.5,0.7c0.1,0,0.1,0,0.2,0V175z
			 M148.6,158.4c-0.1,0-0.1,0-0.2,0c-0.3,0-0.6,0-0.9,0c0,0,0,0,0,0c-3.3-0.1-6.4-0.4-9.5-0.9c-1.3-4.6-2.4-9.9-3.2-15.9
			c4.4,0.5,9.1,0.7,13.9,0.7V158.4z M148.6,139.5c-4.9,0-9.7-0.3-14.2-0.8c-0.7-5.7-1-12-1.1-18.7h15.3V139.5z M148.6,117.2h-15.3
			c0.1-6.7,0.4-12.9,1.1-18.7c4.5-0.5,9.3-0.8,14.2-0.8V117.2z M148.6,94.9c-4.8,0-9.5,0.3-13.9,0.7c0.8-6,1.9-11.3,3.2-15.9
			c3.1-0.5,10.6-0.9,10.7-0.9V94.9z M148.6,76.1c-3.3,0.1-6.6,0.3-9.7,0.7c2.7-8.1,6.1-13.3,9.5-14.5c0.1,0,0.2,0,0.2-0.1
			L148.6,76.1z M169.5,120h20.3c-0.1,4.8-0.6,9.4-1.5,13.8c-5.7,2-12.5,3.5-19.9,4.5C169.1,132.4,169.5,126.2,169.5,120z
			 M187.6,137.1c-1.2,5-2.9,9.8-5,14c-5.3,2.6-11.2,4.6-17.5,5.8c1.3-4.8,2.3-10.1,3.1-15.7C175.3,140.4,181.9,139,187.6,137.1z
			 M151.4,120h15.3c-0.1,6.7-0.4,12.9-1.1,18.7c-4.5,0.5-9.3,0.8-14.2,0.8V120z M151.4,142.3c4.8,0,9.4-0.3,13.9-0.7
			c-0.8,6-1.9,11.4-3.2,15.9c-3,0.5-6.1,0.7-9.2,0.9v0c-0.4,0-0.7,0-1.1,0c-0.1,0-0.2,0-0.4,0V142.3z M151.4,175v-13.8
			c0.1,0,0.2,0,0.4,0c3.2-0.1,6.3-0.3,9.3-0.7C158.4,168.7,154.9,173.9,151.4,175z M164.1,160c5.8-1,11.2-2.6,16.2-4.7
			c-5.9,9.8-14,16.8-23.3,19.1C159.8,171.2,162.2,166.2,164.1,160z M168.6,172.2c6.4-4.4,11.9-10.9,16.1-18.9
			c8-4.1,14.5-9.6,18.9-16.1C197.8,153.5,184.9,166.5,168.6,172.2z M186.6,149c1.7-4,3.1-8.3,4.1-12.9c6.3-2.3,11.2-5.2,14.4-8.4
			C202.4,136.1,195.7,143.5,186.6,149z M191.4,132.7c0.7-4.1,1.1-8.3,1.2-12.7l13.9,0C205.6,124.9,200,129.3,191.4,132.7z"/>
		<g>
			<path class="st1" d="M163.1,114.9c2.4,0,4.8-0.9,6.7-2.8c1.8-1.8,2.8-4.2,2.8-6.7c0-2.4-0.9-4.8-2.8-6.7
				c-1.8-1.8-4.2-2.8-6.7-2.8s-4.8,0.9-6.7,2.8c-1.8,1.8-2.8,4.2-2.8,6.7c0,2.4,0.9,4.8,2.8,6.7C158.3,114,160.7,114.9,163.1,114.9z
				"/>
			<path class="st1" d="M182.9,114.9h9.5c0-9.9-3.8-19.9-11.3-27.4c-7.6-7.6-17.5-11.3-27.4-11.3v9.5c7.5,0,15,2.9,20.7,8.6
				C180.1,100,182.9,107.4,182.9,114.9z"/>
			<path class="st1" d="M199.9,114.9h9.5c0-14.3-5.4-28.6-16.3-39.4c-10.9-10.9-25.2-16.3-39.4-16.3v9.5c11.8,0,23.7,4.5,32.7,13.5
				C195.4,91.3,199.9,103.1,199.9,114.9z"/>
		</g>
	</g>
</g>
</svg>
